<?xml version="1.0" standalone="no"?>
<!DOCTYPE svg PUBLIC "-//W3C//DTD SVG 20010904//EN"
 "http://www.w3.org/TR/2001/REC-SVG-20010904/DTD/svg10.dtd">
<svg version="1.0" xmlns="http://www.w3.org/2000/svg"
 width="852.000000pt" height="538.000000pt" viewBox="0 0 852.000000 538.000000"
 preserveAspectRatio="xMidYMid meet">

<g transform="translate(0.000000,538.000000) scale(0.100000,-0.100000)"
fill="#000000" stroke="none">
<path d="M2860 4991 c0 -22 30 -133 57 -211 35 -101 67 -156 119 -210 24 -25
60 -79 80 -120 44 -93 73 -124 197 -208 109 -74 150 -98 217 -127 25 -11 80
-43 122 -72 73 -49 112 -66 233 -98 111 -29 272 -45 260 -25 -3 6 -24 10 -45
10 -63 0 -161 42 -265 115 -55 37 -124 80 -154 94 -80 38 -110 60 -126 92 -14
27 -14 27 44 -12 32 -21 65 -39 74 -39 29 0 93 -33 183 -96 109 -76 165 -102
236 -107 41 -3 67 -13 118 -46 35 -23 74 -44 87 -47 26 -7 30 -26 9 -43 -29
-25 -56 -100 -56 -159 0 -46 -5 -65 -25 -92 -14 -19 -39 -62 -55 -95 -40 -81
-84 -132 -195 -220 -68 -54 -98 -85 -115 -120 -23 -47 -23 -65 -4 -217 7 -58
-6 -102 -59 -192 -37 -62 -41 -76 -45 -150 l-4 -82 -83 0 c-77 1 -87 -2 -156
-37 -56 -30 -99 -43 -184 -58 -60 -10 -128 -19 -150 -19 -43 -1 -70 -18 -99
-62 -22 -34 -15 -59 29 -93 37 -27 61 -67 93 -153 22 -58 20 -61 -51 -63 -23
-1 -53 -4 -67 -8 -57 -17 340 -26 1160 -26 839 0 1171 8 1122 26 -12 5 -107
12 -210 15 l-188 7 -17 28 c-14 25 -22 29 -61 29 -26 0 -71 11 -108 27 -86 37
-108 52 -108 75 0 31 54 184 104 295 25 55 53 132 62 169 9 38 25 99 34 135
28 106 16 130 -95 197 -95 57 -145 80 -220 102 -38 12 -76 23 -83 26 -22 6 7
40 47 54 20 7 49 22 64 33 16 11 68 39 116 62 96 47 135 85 177 173 20 43 25
67 23 118 -3 72 1 79 30 69 18 -5 21 -15 21 -55 0 -78 21 -87 136 -65 11 3 30
-2 42 -10 19 -14 23 -13 48 20 14 19 35 35 46 35 11 0 46 16 78 35 67 41 87
79 97 181 5 56 3 68 -21 108 -38 65 -83 96 -159 109 -61 10 -65 9 -116 -18
-29 -16 -62 -42 -73 -58 -20 -28 -24 -29 -72 -22 -49 6 -116 38 -116 55 0 19
-108 125 -145 141 -51 23 -143 25 -189 3 -33 -16 -35 -16 -91 16 -72 41 -118
52 -174 39 -41 -9 -47 -8 -80 18 -20 16 -47 36 -61 44 -28 18 -153 49 -196 49
-89 0 -174 67 -274 215 -36 54 -57 75 -72 75 -12 0 -35 16 -54 38 -28 32 -35
35 -51 26 -15 -9 -25 -9 -44 2 -35 19 -48 17 -59 -11 -15 -39 -49 -31 -147 34
-106 71 -216 179 -289 286 -30 43 -54 73 -54 66z m1280 -830 c46 -30 79 -46
85 -40 5 5 31 9 57 9 38 0 66 -9 124 -40 80 -43 104 -48 104 -26 0 17 31 26
90 26 67 0 126 -34 183 -105 26 -33 64 -69 85 -80 l37 -20 -32 -3 c-45 -4 -84
19 -139 83 -45 53 -104 96 -104 77 0 -5 9 -17 21 -28 19 -17 49 -65 49 -79 0
-17 -52 1 -133 46 -93 51 -157 72 -157 50 0 -6 16 -28 35 -50 66 -72 35 -56
-39 21 -79 82 -127 106 -190 94 -27 -5 -38 0 -76 35 -25 22 -61 49 -80 59 -26
14 -30 19 -15 19 11 1 54 -21 95 -48z m-328 6 c20 -12 74 -47 120 -78 80 -54
145 -79 205 -79 16 0 44 -9 63 -20 81 -47 165 -81 242 -98 99 -22 82 -38 -21
-21 -76 14 -131 36 -212 85 -31 18 -70 34 -86 34 -74 0 -211 71 -352 181 -33
27 -4 24 41 -4z m1328 -307 c0 -5 -9 -10 -19 -10 -11 0 -27 -10 -35 -22 -9
-12 -19 -19 -22 -15 -11 11 37 57 58 57 10 0 18 -4 18 -10z m-820 -76 c-17
-34 -30 -75 -30 -96 0 -21 -4 -38 -10 -38 -15 0 -12 66 5 106 16 40 55 97 61
91 2 -2 -9 -30 -26 -63z m907 -46 c35 -18 65 -39 68 -46 7 -18 -20 -68 -40
-76 -26 -9 -35 -7 -35 9 0 24 -22 65 -36 65 -17 0 -26 -28 -14 -50 22 -40 13
-53 -31 -47 -23 3 -48 12 -56 19 -12 12 -10 20 11 50 13 20 27 47 31 59 8 26
24 49 34 49 3 0 34 -14 68 -32z m-416 -9 c37 -26 62 -84 67 -155 3 -51 0 -70
-23 -119 -30 -62 -102 -145 -127 -145 -10 0 -18 13 -23 37 -4 21 -29 79 -56
129 -27 50 -49 96 -49 102 0 27 31 8 66 -40 21 -29 39 -55 41 -57 2 -2 5 -2 8
0 2 3 -9 41 -26 84 -36 93 -41 161 -13 182 24 17 99 8 135 -18z m132 -38 c20
-34 15 -41 -29 -41 -24 0 -33 5 -37 21 -14 53 37 69 66 20z m-455 -90 c37 -75
40 -108 11 -145 -38 -48 -68 -28 -84 58 -4 20 -12 36 -18 36 -7 0 -8 -32 -4
-94 7 -101 -3 -131 -38 -124 -17 3 -24 16 -42 78 -3 10 -10 6 -27 -15 -32 -40
-46 -26 -46 51 0 66 -13 85 -25 37 -10 -42 -87 -144 -141 -188 -87 -72 -114
-104 -114 -135 0 -35 2 -36 37 -13 19 13 47 18 94 18 64 0 100 -12 70 -23 -35
-12 -121 -106 -108 -118 2 -2 24 7 49 21 52 29 193 54 210 37 8 -8 6 -16 -6
-28 -25 -25 -11 -29 21 -6 104 74 225 60 393 -44 120 -75 129 -82 136 -109 11
-45 -51 -272 -114 -415 -71 -162 -95 -235 -90 -281 3 -31 9 -37 79 -72 44 -22
99 -41 132 -46 62 -8 73 -14 62 -31 -5 -8 -41 -9 -123 -4 l-117 7 -63 45 c-44
31 -61 49 -57 61 2 9 12 75 20 148 13 108 22 150 55 231 22 55 40 105 40 112
0 26 -27 -11 -56 -75 -16 -35 -33 -65 -38 -65 -15 0 0 86 25 135 14 28 40 59
64 75 86 60 92 90 13 70 -24 -6 -72 -10 -108 -8 l-65 3 63 23 c35 13 61 26 58
29 -3 3 -37 -2 -75 -12 -49 -12 -99 -16 -163 -13 -81 3 -102 7 -160 36 -36 18
-82 51 -103 73 -38 42 -55 47 -35 10 19 -36 -11 -25 -67 24 -55 48 -103 131
-103 176 0 15 -4 30 -9 33 -14 9 -31 -43 -31 -98 0 -52 8 -69 77 -166 l18 -25
-30 22 c-42 30 -62 53 -80 96 -39 94 -6 172 116 269 111 89 157 140 201 227
21 40 51 89 67 108 l30 37 10 -27 c12 -32 27 -35 36 -8 12 37 57 72 89 69 27
-3 35 -11 64 -67z m189 -258 c6 -53 -3 -67 -47 -78 -23 -5 -28 -1 -48 40 -26
54 -19 79 31 100 42 18 58 3 64 -62z m-124 -37 c9 -13 19 -35 22 -49 6 -21 2
-28 -24 -41 -45 -24 -70 -20 -82 12 -14 35 -1 73 31 89 34 17 35 17 53 -11z
m-99 -97 c15 -29 14 -32 -9 -55 -28 -28 -47 -30 -69 -8 -21 20 -20 53 1 76 25
28 59 23 77 -13z m-536 -441 c20 -118 10 -158 -20 -80 -12 28 -24 52 -28 52
-12 0 -60 -143 -60 -179 0 -36 18 -109 32 -127 11 -16 -18 -39 -82 -65 -45
-18 -75 -22 -167 -22 -62 0 -113 -2 -113 -4 0 -12 77 -33 143 -39 42 -4 77
-11 77 -15 0 -17 -55 -22 -154 -14 -155 13 -207 10 -254 -14 -62 -32 -69 -54
-41 -132 12 -35 27 -70 32 -76 6 -9 5 -13 -4 -13 -27 0 -40 17 -63 82 -30 81
-48 109 -92 143 -19 14 -34 34 -34 44 0 30 52 71 91 71 86 0 260 39 331 73 40
20 90 39 110 43 50 8 135 -13 153 -39 21 -30 30 -13 14 25 -8 18 -14 65 -14
103 0 65 4 77 53 169 28 54 52 105 52 114 0 12 3 13 11 5 6 -6 18 -53 27 -105z
m597 -14 c46 -10 46 -12 15 -60 -45 -71 -55 -130 -36 -205 15 -57 15 -72 1
-183 -16 -116 -20 -136 -50 -216 l-13 -35 -497 -6 -497 -7 -23 24 c-13 13 -33
24 -44 24 -30 0 -61 47 -61 91 l0 38 56 7 c31 3 91 3 133 -2 42 -4 117 -7 168
-5 51 1 117 -2 146 -9 46 -9 61 -8 96 6 36 14 54 35 165 203 123 183 153 237
165 296 l7 30 98 7 c54 4 101 10 104 13 3 3 13 3 21 1 9 -3 30 -8 46 -12z"/>
<path d="M4630 2925 c-47 -27 -152 -55 -209 -55 -31 0 -83 7 -116 14 -33 8
-62 13 -64 10 -19 -18 96 -54 174 -54 89 0 245 55 245 86 0 17 1 17 -30 -1z"/>
<path d="M5549 4948 c-31 -51 -162 -210 -239 -289 -47 -48 -65 -60 -119 -75
-55 -15 -76 -28 -140 -87 l-76 -69 -50 7 c-123 18 -163 13 -280 -40 -101 -46
-115 -50 -180 -48 -38 1 -149 4 -245 7 -153 4 -389 31 -457 52 -41 12 -24 -11
25 -35 64 -31 185 -75 249 -90 28 -7 77 -29 110 -49 52 -33 65 -37 129 -37 60
0 80 -5 132 -32 l61 -33 64 17 c88 23 154 8 237 -53 33 -24 66 -44 73 -44 6 0
45 18 85 40 284 155 522 440 615 735 24 76 43 165 35 165 -2 0 -15 -19 -29
-42z"/>
<path d="M3327 4159 c29 -51 144 -164 190 -188 23 -11 54 -21 67 -21 38 0 110
-30 211 -89 102 -58 140 -71 228 -75 43 -2 78 -11 114 -29 29 -15 56 -27 60
-27 12 0 55 119 47 131 -4 7 -24 8 -53 4 -85 -12 -318 28 -447 76 -31 12 -86
42 -122 67 -37 25 -103 62 -147 82 -44 21 -97 51 -119 69 -21 17 -41 31 -43
31 -2 0 4 -14 14 -31z"/>
<path d="M528 1577 c-94 -27 -162 -90 -199 -187 -67 -176 63 -372 257 -388 92
-7 155 18 224 87 62 62 80 106 80 190 l0 52 -152 -3 -153 -3 -3 -62 -3 -63 71
0 c80 0 87 -11 30 -42 -43 -22 -101 -23 -146 -2 -111 53 -110 220 1 274 56 27
98 25 154 -7 l48 -26 46 32 c26 18 47 38 47 46 0 17 -70 70 -119 91 -50 21
-130 26 -183 11z"/>
<path d="M1925 1575 c-117 -55 -141 -197 -47 -277 17 -14 67 -38 111 -53 44
-14 85 -32 91 -40 31 -37 -24 -82 -85 -71 -18 4 -46 20 -62 36 l-28 29 -49
-27 c-27 -15 -51 -32 -53 -39 -3 -7 14 -32 37 -57 136 -147 413 -61 385 119
-10 73 -57 116 -170 160 -102 40 -120 59 -84 88 27 21 59 17 103 -15 l30 -21
45 24 c55 29 60 46 26 87 -54 65 -175 92 -250 57z"/>
<path d="M7185 1574 c-130 -42 -211 -151 -209 -284 2 -199 200 -338 389 -273
49 16 155 106 155 131 0 7 -25 24 -55 39 l-55 27 -27 -26 c-79 -75 -201 -59
-253 34 -73 130 74 277 209 209 23 -12 44 -28 48 -36 3 -8 12 -15 19 -15 20 0
114 48 114 58 0 5 -16 27 -35 50 -70 81 -199 118 -300 86z"/>
<path d="M7832 1569 c-58 -29 -85 -70 -90 -138 -3 -46 0 -62 20 -90 32 -48 62
-67 148 -97 41 -14 81 -30 88 -36 21 -18 13 -47 -19 -63 -39 -21 -80 -12 -125
27 l-34 30 -47 -29 c-27 -17 -49 -37 -51 -46 -5 -25 70 -92 123 -111 214 -72
394 122 252 272 -20 20 -60 43 -112 63 -77 30 -115 53 -115 70 0 5 11 16 25
25 20 13 30 14 60 4 19 -6 39 -19 44 -27 10 -19 40 -13 89 17 42 26 40 45 -6
89 -65 62 -171 79 -250 40z"/>
<path d="M2983 1568 c-6 -7 -44 -107 -86 -223 -41 -115 -85 -234 -96 -263 -12
-29 -21 -57 -21 -63 0 -6 28 -9 72 -7 l72 3 16 45 16 45 100 3 100 3 21 -51
21 -50 66 0 c48 0 66 4 66 13 0 8 -44 135 -98 283 l-98 269 -70 3 c-49 2 -74
-1 -81 -10z m105 -260 c11 -31 17 -59 14 -62 -10 -10 -92 -6 -92 4 0 25 48
127 55 118 1 -2 11 -29 23 -60z"/>
<path d="M3420 1515 l0 -65 70 0 70 0 2 -217 3 -218 65 0 65 0 3 218 2 217 70
0 70 0 0 65 0 65 -210 0 -210 0 0 -65z"/>
<path d="M4055 1568 c-3 -7 -4 -135 -3 -283 l3 -270 65 0 65 0 5 110 5 110
112 3 112 3 3 -113 3 -113 65 0 65 0 0 280 0 280 -65 0 -65 0 -3 -102 -3 -103
-114 0 -114 0 -3 103 -3 102 -63 3 c-44 2 -64 -1 -67 -10z"/>
<path d="M4825 1568 c-3 -7 -4 -135 -3 -283 l3 -270 175 0 175 0 0 60 0 60
-107 3 -108 3 -2 217 -3 217 -63 3 c-44 2 -64 -1 -67 -10z"/>
<path d="M5405 1567 c-3 -7 -4 -134 -3 -282 l3 -270 175 0 175 0 0 60 0 60
-107 3 c-105 3 -108 3 -114 27 -3 14 -3 36 0 50 6 24 8 25 101 25 l95 0 0 60
0 60 -90 0 c-80 0 -90 2 -100 21 -7 11 -9 32 -6 45 6 23 9 24 111 24 l105 0 0
65 0 65 -170 0 c-128 0 -172 -3 -175 -13z"/>
<path d="M5974 1566 c-3 -7 -4 -35 -2 -62 l3 -49 67 -3 68 -3 2 -217 3 -217
65 0 65 0 5 215 5 215 68 3 67 3 0 64 0 65 -205 0 c-165 0 -207 -3 -211 -14z"/>
<path d="M6615 1567 c-3 -7 -4 -134 -3 -282 l3 -270 65 0 65 0 3 283 2 282
-65 0 c-44 0 -67 -4 -70 -13z"/>
<path d="M1221 1541 c-63 -34 -78 -100 -38 -179 16 -34 19 -46 9 -50 -7 -2
-27 -16 -44 -30 -81 -68 -74 -181 15 -240 36 -24 50 -27 126 -27 68 0 96 5
135 22 l48 23 30 -25 c25 -21 40 -25 99 -25 38 0 69 3 69 7 0 4 -27 35 -60 68
-58 59 -60 61 -50 95 6 19 10 48 10 64 l0 29 -70 -5 c-57 -4 -72 -2 -85 12
-20 23 -19 37 6 50 28 15 59 69 59 103 0 42 -26 90 -59 110 -40 24 -154 23
-200 -2z m136 -98 c3 -8 -4 -24 -16 -36 -17 -17 -25 -19 -39 -11 -24 16 -28
61 -5 66 27 6 54 -3 60 -19z m-18 -247 l43 -44 -23 -15 c-40 -25 -66 -28 -103
-13 -28 12 -36 21 -36 41 0 27 40 75 62 75 8 0 33 -20 57 -44z"/>
<path d="M1510 687 c-61 -29 -79 -95 -37 -135 13 -12 26 -22 30 -22 4 0 27 -9
52 -21 46 -21 56 -44 33 -67 -17 -17 -73 -15 -88 3 -14 17 -29 19 -48 7 -34
-22 33 -72 96 -72 29 0 49 7 71 26 62 52 31 121 -71 158 -38 14 -48 22 -48 41
0 37 49 48 82 18 17 -15 20 -15 35 0 14 13 14 19 3 32 -10 12 -77 48 -84 44 0
0 -12 -6 -26 -12z"/>
<path d="M2541 677 c-66 -33 -86 -66 -86 -140 1 -105 52 -157 153 -157 107 0
168 87 143 202 -11 50 -49 87 -110 106 -51 15 -47 16 -100 -11z m119 -54 c91
-53 51 -192 -55 -193 -57 0 -95 32 -102 88 -7 50 9 87 47 107 34 19 76 18 110
-2z"/>
<path d="M3166 684 c-50 -18 -74 -40 -92 -83 -31 -74 -8 -156 56 -199 30 -20
43 -23 95 -18 33 3 67 6 75 7 8 0 25 -2 38 -6 21 -7 22 -6 22 69 l0 76 -65 0
c-58 0 -65 -2 -65 -20 0 -15 7 -20 25 -20 14 0 28 -7 32 -15 8 -24 -26 -44
-74 -45 -59 0 -103 44 -103 103 1 45 11 63 50 90 29 20 61 22 107 5 28 -10 36
-10 49 4 15 15 14 17 -7 29 -25 14 -90 39 -99 38 -3 0 -23 -7 -44 -15z"/>
<path d="M1982 682 c-22 -3 -23 -4 -20 -150 l3 -147 98 -3 97 -3 0 25 c0 24
-3 25 -72 28 l-73 3 -5 125 c-5 123 -5 125 -28 122z"/>
<path d="M3768 678 c-8 -7 -32 -65 -52 -128 -61 -188 -59 -170 -28 -170 19 0
30 7 37 23 8 18 19 22 67 25 54 3 59 1 70 -23 14 -32 58 -36 58 -5 0 11 -4 28
-9 38 -6 9 -25 64 -42 122 -31 99 -48 130 -74 130 -6 0 -18 -6 -27 -12z m41
-92 c6 -7 14 -34 17 -60 l7 -46 -36 0 c-45 0 -51 10 -36 58 6 20 13 43 15 50
4 16 19 15 33 -2z"/>
<path d="M4236 683 c-3 -3 -6 -73 -6 -155 l0 -148 25 0 c25 0 25 0 25 94 0
140 7 139 103 -17 39 -63 53 -78 70 -75 21 3 22 7 22 153 0 148 0 150 -22 153
-22 3 -23 0 -23 -71 0 -132 -16 -135 -86 -16 -25 43 -49 79 -52 80 -4 0 -16 2
-28 4 -12 3 -24 2 -28 -2z"/>
<path d="M5166 682 c-3 -3 -6 -72 -6 -154 0 -149 0 -149 23 -146 19 3 23 10
27 63 l5 60 65 0 65 0 3 -62 c3 -60 4 -63 28 -63 l25 0 -3 153 c-3 148 -4 152
-25 155 -20 3 -22 -1 -25 -60 l-3 -63 -65 0 -65 0 -5 59 c-4 45 -9 60 -22 62
-9 1 -19 -1 -22 -4z"/>
<path d="M5750 682 c-6 -2 -10 -62 -10 -153 l0 -149 95 0 c94 0 95 0 95 25 0
23 -3 24 -67 27 l-68 3 0 35 0 35 58 3 c53 3 57 5 57 27 0 22 -4 24 -57 27
l-58 3 0 35 0 35 63 3 c56 3 62 5 62 25 0 21 -4 22 -80 22 -44 0 -84 -1 -90
-3z"/>
<path d="M6250 530 l0 -150 25 0 c23 0 25 3 25 49 0 28 5 53 11 56 24 16 59
-6 85 -55 21 -38 33 -50 51 -50 29 0 29 5 -2 55 -30 49 -31 63 -4 91 28 30 29
86 2 121 -19 26 -25 28 -107 31 l-86 3 0 -151z m154 94 c39 -39 0 -97 -62 -92
-35 3 -37 5 -40 42 -2 21 -1 44 2 52 7 19 80 18 100 -2z"/>
<path d="M6790 530 l0 -150 95 0 c94 0 95 0 95 25 0 23 -3 24 -67 27 l-68 3 0
35 0 35 58 3 c53 3 57 5 57 27 0 22 -4 24 -57 27 l-58 3 0 35 0 35 65 5 c51 4
66 9 68 23 3 15 -6 17 -92 17 l-96 0 0 -150z"/>
</g>
</svg>
